HIERARCHY
ROOT Hips
{
	OFFSET 0.000000 0.000000 0.000000
	CHANNELS 6 Xposition Yposition Zposition Xrotation Yrotation Zrotation
	JOINT LeftUpLeg_virtual
	{
		OFFSET 0.000000 0.000000 0.000000
		CHANNELS 3 Xrotation Yrotation Zrotation
		JOINT LeftUpLeg
		{
			OFFSET 10.205400 -3.823500 0.155100
			CHANNELS 3 Xrotation Yrotation Zrotation
			JOINT LeftLeg
			{
				OFFSET 0.708757 -12.982077 0.567790
				CHANNELS 3 Xrotation Yrotation Zrotation
				JOINT LeftFoot
				{
					OFFSET -0.708756 -10.717838 -2.184338
					CHANNELS 3 Xrotation Yrotation Zrotation
					JOINT LeftToeBase
					{
						OFFSET 0.108149 -7.191104 7.560241
						CHANNELS 3 Xrotation Yrotation Zrotation
						JOINT LeftToe_End
						{
							OFFSET 0.070230 0.081724 4.490308
							CHANNELS 3 Xrotation Yrotation Zrotation
							End Site
							{
								OFFSET 0 0 0
							}
						}
					}
				}
			}
		}
	}
	JOINT RightUpLeg_virtual
	{
		OFFSET 0.000000 0.000000 0.000000
		CHANNELS 3 Xrotation Yrotation Zrotation
		JOINT RightUpLeg
		{
			OFFSET -10.205400 -3.823500 0.005500
			CHANNELS 3 Xrotation Yrotation Zrotation
			JOINT RightLeg
			{
				OFFSET -0.708756 -12.982134 0.610632
				CHANNELS 3 Xrotation Yrotation Zrotation
				JOINT RightFoot
				{
					OFFSET 0.708754 -10.717769 -1.945823
					CHANNELS 3 Xrotation Yrotation Zrotation
					JOINT RightToeBase
					{
						OFFSET -0.108140 -7.191069 7.372968
						CHANNELS 3 Xrotation Yrotation Zrotation
						JOINT RightToe_End
						{
							OFFSET -0.070227 0.081735 4.479403
							CHANNELS 3 Xrotation Yrotation Zrotation
							End Site
							{
								OFFSET 0 0 0
							}
						}
					}
				}
			}
		}
	}
	JOINT Spine_virtual
	{
		OFFSET 0.000000 0.000000 0.000000
		CHANNELS 3 Xrotation Yrotation Zrotation
		JOINT Spine
		{
			OFFSET 0.000000 6.876099 0.125700
			CHANNELS 3 Xrotation Yrotation Zrotation
			JOINT Spine1
			{
				OFFSET 0.000000 5.730043 0.104720
				CHANNELS 3 Xrotation Yrotation Zrotation
				JOINT Spine1_split
				{
					OFFSET 0.000000 5.730043 0.104720
					CHANNELS 3 Xrotation Yrotation Zrotation
					JOINT Spine2
					{
						OFFSET 0.000000 5.730043 0.104720
						CHANNELS 3 Xrotation Yrotation Zrotation
						JOINT Neck_virtual
						{
							OFFSET 0.000000 0.000000 0.000000
							CHANNELS 3 Xrotation Yrotation Zrotation
							JOINT Neck
							{
								OFFSET 0.000000 10.314075 0.188496
								CHANNELS 3 Xrotation Yrotation Zrotation
								JOINT Head
								{
									OFFSET 0.000000 7.643700 -2.377400
									CHANNELS 3 Xrotation Yrotation Zrotation
									JOINT HeadTop_End
									{
										OFFSET 0.000000 43.788605 -13.619600
										CHANNELS 3 Xrotation Yrotation Zrotation
										End Site
										{
											OFFSET 0 0 0
										}
									}
								}
							}
						}
						JOINT LeftShoulder_virtual
						{
							OFFSET 0.000000 0.000000 0.000000
							CHANNELS 3 Xrotation Yrotation Zrotation
							JOINT LeftShoulder
							{
								OFFSET 2.196100 4.412489 0.087492
								CHANNELS 3 Xrotation Yrotation Zrotation
								JOINT LeftShoulder_split
								{
									OFFSET 2.196100 4.412489 0.087492
									CHANNELS 3 Xrotation Yrotation Zrotation
									JOINT LeftArm
									{
										OFFSET 8.771219 -2.981674 -0.026999
										CHANNELS 3 Xrotation Yrotation Zrotation
										JOINT LeftForeArm
										{
											OFFSET 8.512804 0.000000 -0.000000
											CHANNELS 3 Xrotation Yrotation Zrotation
											JOINT LeftHand
											{
												OFFSET 18.484802 0.000000 -0.000000
												CHANNELS 3 Xrotation Yrotation Zrotation
												End Site
												{
													OFFSET 0 0 0
												}
											}
										}
									}
								}
							}
						}
						JOINT RightShoulder_virtual
						{
							OFFSET 0.000000 0.000000 0.000000
							CHANNELS 3 Xrotation Yrotation Zrotation
							JOINT RightShoulder
							{
								OFFSET -2.196100 4.412496 0.070690
								CHANNELS 3 Xrotation Yrotation Zrotation
								JOINT RightShoulder_split
								{
									OFFSET -2.196100 4.412496 0.070690
									CHANNELS 3 Xrotation Yrotation Zrotation
									JOINT RightArm
									{
										OFFSET -8.771282 -2.981682 -0.094208
										CHANNELS 3 Xrotation Yrotation Zrotation
										JOINT RightForeArm
										{
											OFFSET -8.494598 0.000000 0.000000
											CHANNELS 3 Xrotation Yrotation Zrotation
											JOINT RightHand
											{
												OFFSET -18.483803 0.000000 0.000001
												CHANNELS 3 Xrotation Yrotation Zrotation
												End Site
												{
													OFFSET 0 0 0
												}
											}
										}
									}
								}
							}
						}
					}
				}
			}
		}
	}
}
MOTION
Frames: 7
Frame Time: 0.03333333
-0.153538 33.320740 0.056665 0.000000 0.000000 0.000000 -5.323199 -2.328597 0.616470 2.104786 5.035855 8.189443 17.409346 9.608206 -1.077707 -15.824177 5.543299 -11.088297 2.648274 0.488275 -1.584883 0.000000 0.000000 0.000000 -4.960689 -2.026219 0.457620 10.364784 -9.694980 -10.638602 12.771413 -6.791965 4.660413 -15.315251 -6.767694 5.965010 -3.082140 -0.277735 -0.837910 0.000000 0.000000 0.000000 -4.489413 -2.420699 -0.057760 3.359386 1.697011 -2.156348 1.239083 0.206715 0.171665 0.921711 -1.290174 0.132689 0.000000 0.000000 0.000000 0.797992 0.715678 -0.023551 3.089004 0.274417 -0.016068 18.385966 -11.573629 0.335859 0.000000 0.000000 0.000000 0.871527 0.546729 0.010778 2.822649 -3.932412 -12.534739 -1.211946 -1.000154 -1.763500 -4.105721 -7.833512 -58.859954 -1.234145 -13.079111 0.383498 0.000000 0.000000 0.000000 0.819590 0.340021 0.019857 2.424649 0.729875 15.556461 -0.601069 2.083603 -2.051544 -1.537894 8.630334 64.717818 0.191901 15.874273 1.079125 0.000000 0.000000 0.000000 
-0.141874 33.328178 -0.070639 0.000000 0.000000 0.000000 -5.455061 -2.242446 0.653091 2.018351 4.884453 8.142001 17.551399 9.473771 -1.065492 -15.769117 5.381647 -11.235504 2.566689 0.483669 -1.544902 0.000000 0.000000 0.000000 -5.096144 -1.816143 0.490658 10.348420 -9.812456 -10.692749 12.673985 -6.749013 4.598290 -15.309258 -6.876363 5.858226 -2.634899 -0.300154 -0.800976 0.000000 0.000000 0.000000 -4.548914 -2.138931 0.059860 3.415814 1.782048 -2.105449 1.254898 0.245556 0.148340 1.006704 -1.023639 0.221161 0.000000 0.000000 0.000000 0.749828 0.715277 -0.021425 3.115854 0.176638 -0.030027 18.369486 -11.646564 0.409515 0.000000 0.000000 0.000000 0.863121 0.569989 -0.027185 2.799365 -3.805900 -12.609194 -1.356256 -0.582741 -2.016321 -3.313649 -7.172114 -58.697403 -1.226986 -12.543027 0.406357 0.000000 0.000000 0.000000 0.852438 0.395251 -0.002963 2.403835 0.905121 15.548825 -0.680075 2.463229 -2.244953 -2.229691 8.951410 64.675212 0.259469 16.485290 0.959523 0.000000 0.000000 0.000000 
-0.158883 33.315491 -0.223465 0.000000 0.000000 0.000000 -5.670092 -1.711838 0.788343 1.759691 4.706376 8.010344 17.932819 9.273233 -1.093728 -15.931307 5.069082 -11.269407 2.454919 0.472080 -1.472735 0.000000 0.000000 0.000000 -5.339744 -1.182774 0.620448 10.215318 -9.902348 -10.824404 13.022927 -6.708630 4.554105 -15.494812 -7.252015 5.685059 -2.377245 -0.341271 -0.775505 0.000000 0.000000 0.000000 -4.764028 -1.567518 0.243774 3.600052 1.927517 -2.022648 1.284059 0.298054 0.137431 1.075079 -0.964606 0.257467 0.000000 0.000000 0.000000 0.711798 0.734149 -0.003222 3.049238 0.043097 -0.035843 18.311758 -11.932885 0.580977 0.000000 0.000000 0.000000 0.877851 0.600801 -0.049209 2.772924 -3.715365 -12.642830 -1.545188 -0.417811 -2.072869 -2.322451 -6.041901 -58.734907 -1.123068 -11.659847 0.448524 0.000000 0.000000 0.000000 0.902425 0.468331 -0.006555 2.366035 1.121552 15.579282 -0.610938 2.582785 -2.313352 -3.229291 9.783597 64.360299 0.338364 17.500731 0.842371 0.000000 0.000000 0.000000 
-0.207677 33.289711 -0.371593 0.000000 0.000000 0.000000 -5.939435 -0.846576 0.980331 1.379582 4.530007 7.843233 18.525449 9.032670 -1.143797 -16.310731 4.660987 -11.172638 2.349365 0.455234 -1.391337 0.000000 0.000000 0.000000 -5.679657 -0.276028 0.816801 10.025318 -9.944958 -10.979179 13.728881 -6.678105 4.520093 -15.888987 -7.848511 5.434564 -2.257639 -0.404608 -0.755875 0.000000 0.000000 0.000000 -5.088705 -0.822909 0.451915 3.872637 2.119967 -1.928917 1.312112 0.353599 0.138944 1.106422 -0.987268 0.255514 0.000000 0.000000 0.000000 0.694489 0.768358 0.026799 2.899320 -0.106759 -0.038531 18.239079 -12.395067 0.833427 0.000000 0.000000 0.000000 0.917578 0.638176 -0.044219 2.758577 -3.658677 -12.618333 -1.644283 -0.552431 -1.962791 -1.291108 -4.677080 -58.942729 -0.944198 -10.697732 0.486353 0.000000 0.000000 0.000000 0.958209 0.543054 0.010025 2.313765 1.344948 15.678257 -0.459265 2.460886 -2.235844 -4.264602 10.866394 63.857932 0.425287 18.752033 0.743767 0.000000 0.000000 0.000000 
-0.273706 33.251461 -0.525948 0.000000 0.000000 0.000000 -6.241850 0.186584 1.186014 0.929308 4.376096 7.715263 19.257928 8.765076 -1.196305 -16.844109 4.219274 -11.003922 2.293527 0.436131 -1.325177 0.000000 0.000000 0.000000 -6.082332 0.689486 1.032231 9.792908 -9.915880 -11.082295 14.604133 -6.673670 4.491420 -16.406669 -8.585836 5.080377 -2.119733 -0.481790 -0.741876 0.000000 0.000000 0.000000 -5.503653 -0.017650 0.652416 4.181187 2.351620 -1.836733 1.329543 0.410751 0.154879 1.097187 -0.988068 0.263454 0.000000 0.000000 0.000000 0.706124 0.817144 0.066196 2.721020 -0.266639 -0.039472 18.184330 -12.981691 1.146452 0.000000 0.000000 0.000000 0.971306 0.686572 -0.016281 2.768130 -3.608027 -12.562184 -1.623071 -0.807415 -1.761608 -0.281516 -3.220086 -59.285523 -0.724724 -9.797529 0.488195 0.000000 0.000000 0.000000 1.009783 0.607171 0.043082 2.259812 1.558372 15.844811 -0.249195 2.297857 -2.161005 -5.168291 11.928920 63.319105 0.500305 20.163080 0.686017 0.000000 0.000000 0.000000 
-0.345575 33.208611 -0.654423 0.000000 0.000000 0.000000 -6.557091 1.197610 1.365443 0.479768 4.274977 7.677698 20.041501 8.492540 -1.250989 -17.472829 3.806377 -10.814630 2.302614 0.418286 -1.282036 0.000000 0.000000 0.000000 -6.504755 1.571438 1.228348 9.564135 -9.835168 -11.087546 15.476811 -6.684000 4.484616 -16.854180 -9.367825 4.691785 -1.900519 -0.554779 -0.728437 0.000000 0.000000 0.000000 -5.944922 0.775175 0.819344 4.479087 2.611685 -1.753000 1.326329 0.470288 0.183395 1.137590 -1.004335 0.216495 0.000000 0.000000 0.000000 0.736613 0.881740 0.110512 2.577658 -0.418444 -0.050514 18.162923 -13.648134 1.504563 0.000000 0.000000 0.000000 1.024382 0.747972 0.033872 2.803136 -3.553110 -12.466755 -1.554846 -1.100237 -1.576512 0.695431 -1.822010 -59.662283 -0.513974 -9.033816 0.438529 0.000000 0.000000 0.000000 1.053031 0.659613 0.088532 2.214178 1.764462 16.053979 -0.019105 2.198595 -2.110836 -5.828842 12.785934 62.871905 0.553719 21.645829 0.677221 0.000000 0.000000 0.000000 
-0.414788 33.173119 -0.766376 0.000000 0.000000 0.000000 -6.882341 2.072541 1.499865 0.056800 4.236823 7.735677 20.804628 8.226048 -1.316873 -18.101629 3.453356 -10.650130 2.345539 0.405324 -1.251091 0.000000 0.000000 0.000000 -6.913429 2.340959 1.382733 9.384291 -9.715849 -10.981724 16.170130 -6.691851 4.481756 -17.035428 -10.134518 4.394283 -1.703970 -0.598183 -0.722015 0.000000 0.000000 0.000000 -6.373432 1.523325 0.942849 4.734534 2.886424 -1.677646 1.307841 0.542294 0.218748 1.194719 -1.024843 0.208531 0.000000 0.000000 0.000000 0.778606 0.954361 0.160582 2.515759 -0.545694 -0.066528 18.174344 -14.356059 1.889471 0.000000 0.000000 0.000000 1.068998 0.817155 0.092025 2.853059 -3.513802 -12.332024 -1.492954 -1.343671 -1.477943 1.707187 -0.524206 -59.976704 -0.348405 -8.436693 0.347513 0.000000 0.000000 0.000000 1.080573 0.705278 0.132861 2.173696 1.970707 16.258697 0.199829 2.186093 -2.121419 -6.290864 13.344373 62.597120 0.586622 23.113842 0.688929 0.000000 0.000000 0.000000 
